<?xml version="1.0" encoding="utf-8"?>
<!-- Generator: Adobe Illustrator 24.3.0, SVG Export Plug-In . SVG Version: 6.00 Build 0)  -->
<svg version="1.1" id="Layer_1" xmlns="http://www.w3.org/2000/svg" xmlns:xlink="http://www.w3.org/1999/xlink" x="0px" y="0px"
	 viewBox="0 0 150 30" style="enable-background:new 0 0 150 30;" xml:space="preserve">
<style type="text/css">
	.st0{fill:#F53C05;}
</style>
<g>
	<path d="M13.69,15.93l-1.11-0.63L2.06,9.22v0.02L2.03,9.23v13.41l2.34,1.34v-0.01l9.3,5.38v-0.02l0.02,0.01L13.69,15.93z
		 M4.38,13.23l6.97,4.03v8.06L4.37,21.3L4.38,13.23z"/>
	<polygon points="24.18,5.87 14.87,11.24 14.87,11.24 12.55,9.89 19.53,5.86 21.85,4.52 19.52,3.18 17.2,1.84 14.87,0.5 3.26,7.21 
		5.58,8.55 7.9,7.21 14.89,3.18 14.89,3.17 17.2,4.53 7.91,9.89 10.22,11.23 12.64,12.62 12.64,12.62 14.88,13.92 17.2,12.58 
		24.19,8.54 26.5,7.21 	"/>
	<path d="M27.84,12.05l0-2.68l-2.32,1.34v0l-9.3,5.37l0,6.71l0,0v2.68l0,0l0,4.03l2.32-1.34v-4.03l9.3-5.37v-2.68v0.01V12.05
		L27.84,12.05z M25.51,17.42l-6.97,4.03v-4.03l6.97-4.03L25.51,17.42z"/>
</g>
<g>
	<path d="M40.54,26.44c-4.46,0-7.79-3.25-7.78-8.72C32.75,12.24,36.07,9,40.54,9c4.44,0,7.79,3.23,7.78,8.72
		C48.33,23.21,44.98,26.44,40.54,26.44z M40.54,23.7c2.78,0,4.72-2.1,4.71-5.98c0.01-3.88-1.93-5.98-4.71-5.98
		c-2.77,0-4.72,2.1-4.71,5.98C35.82,21.6,37.77,23.7,40.54,23.7z"/>
	<path d="M50.88,24l6-5.79c1.71-1.71,2.6-2.72,2.6-4.15c0-1.58-1.25-2.58-2.91-2.58c-1.75,0-2.87,1.09-2.86,2.81h-2.91
		c-0.01-3.21,2.4-5.3,5.79-5.3c3.47,0,5.8,2.07,5.81,4.92c-0.01,1.91-0.93,3.46-4.27,6.61l-3.02,3v0.12h7.55v2.55H50.88V24z"/>
	<path d="M65.5,9.24h6.38c3.89,0,5.96,2.37,5.98,5.63c-0.01,3.25-2.11,5.6-6.02,5.6h-3.28v5.74H65.5V9.24z M71.41,17.96
		c2.3-0.01,3.33-1.3,3.33-3.09c0-1.82-1.03-3.07-3.33-3.07h-2.86v6.16H71.41z"/>
	<path d="M80.31,9.24h3.05v14.39h7.5v2.58H80.31V9.24z"/>
	<path d="M107.08,9.24v11.09c-0.01,3.64-2.75,6.14-6.89,6.14c-4.16,0-6.88-2.5-6.89-6.14V9.24h3.05v10.83
		c0.01,2.14,1.5,3.67,3.84,3.68c2.34-0.01,3.82-1.54,3.82-3.68V9.24H107.08z"/>
	<path d="M116.24,11.6c-1.93-0.01-3.08,0.93-3.09,2.2c-0.01,1.43,1.5,2.02,2.91,2.34l1.59,0.42c2.53,0.59,4.97,1.92,4.97,4.88
		c0,2.98-2.36,5.02-6.42,5.02c-3.95,0-6.46-1.9-6.59-5.25h3c0.14,1.77,1.63,2.64,3.56,2.65c2-0.01,3.39-0.98,3.4-2.44
		c-0.01-1.34-1.23-1.9-3.07-2.37l-1.92-0.49c-2.79-0.73-4.52-2.13-4.52-4.57c0-3,2.66-4.99,6.23-4.99c3.6,0,6.05,2.03,6.09,4.9
		h-2.93C119.3,12.44,118.07,11.59,116.24,11.6z"/>
	<path d="M131.17,11.6c-1.93-0.01-3.08,0.93-3.09,2.2c-0.01,1.43,1.5,2.02,2.91,2.34l1.59,0.42c2.53,0.59,4.97,1.92,4.97,4.88
		c0,2.98-2.36,5.02-6.42,5.02c-3.95,0-6.46-1.9-6.59-5.25h3c0.14,1.77,1.63,2.64,3.56,2.65c2-0.01,3.39-0.98,3.4-2.44
		c-0.01-1.34-1.23-1.9-3.07-2.37l-1.92-0.49c-2.79-0.73-4.52-2.13-4.52-4.57c0-3,2.66-4.99,6.23-4.99c3.6,0,6.05,2.03,6.09,4.9
		h-2.93C134.23,12.44,133,11.59,131.17,11.6z"/>
</g>
<rect x="138.71" y="4.74" class="st0" width="9.32" height="2.28"/>
<rect x="137.92" y="4.74" transform="matrix(-1.836970e-16 1 -1 -1.836970e-16 149.1759 -137.4218)" class="st0" width="10.75" height="2.28"/>
</svg>
